<mxfile host="65bd71144e">
    <diagram id="X1_2vlRNtycekf4zp6Dd" name="Page-1">
        <mxGraphModel dx="1066" dy="638" grid="1" gridSize="10" guides="1" tooltips="1" connect="1" arrows="1" fold="1" page="1" pageScale="1" pageWidth="850" pageHeight="1100" math="0" shadow="0">
            <root>
                <mxCell id="0"/>
                <mxCell id="1" parent="0"/>
                <mxCell id="2" value="&lt;div style=&quot;color: rgb(246, 246, 244); background-color: rgb(40, 42, 54); font-family: &amp;quot;Droid Sans Mono&amp;quot;, &amp;quot;monospace&amp;quot;, monospace; font-size: 14px; line-height: 19px;&quot;&gt;&lt;div&gt;robot_version.sprint_number.version_of_the_staging_branch.(hotfix_number)&lt;/div&gt;&lt;div&gt;https://nvie.com/files/Git-branching-model.pdf&lt;/div&gt;&lt;/div&gt;" style="text;html=1;strokeColor=none;fillColor=none;align=center;verticalAlign=middle;whiteSpace=wrap;rounded=0;" parent="1" vertex="1">
                    <mxGeometry x="90" y="70" width="640" height="60" as="geometry"/>
                </mxCell>
                <mxCell id="9" value="Local" style="swimlane;startSize=20;horizontal=0;html=1;whiteSpace=wrap;" parent="1" vertex="1">
                    <mxGeometry x="82" y="130" width="680" height="350" as="geometry">
                        <mxRectangle x="60" y="280" width="40" height="60" as="alternateBounds"/>
                    </mxGeometry>
                </mxCell>
                <mxCell id="16" style="edgeStyle=none;html=1;" parent="9" source="10" target="15" edge="1">
                    <mxGeometry relative="1" as="geometry"/>
                </mxCell>
                <mxCell id="10" value="Create feature" style="rounded=0;whiteSpace=wrap;html=1;" parent="9" vertex="1">
                    <mxGeometry x="280" y="10" width="120" height="60" as="geometry"/>
                </mxCell>
                <mxCell id="23" style="edgeStyle=none;html=1;" parent="9" source="15" target="22" edge="1">
                    <mxGeometry relative="1" as="geometry"/>
                </mxCell>
                <mxCell id="15" value="Unit tests" style="rounded=0;whiteSpace=wrap;html=1;dashed=1;" parent="9" vertex="1">
                    <mxGeometry x="280" y="90" width="120" height="60" as="geometry"/>
                </mxCell>
                <mxCell id="27" style="edgeStyle=none;html=1;" parent="9" source="22" target="25" edge="1">
                    <mxGeometry relative="1" as="geometry"/>
                </mxCell>
                <mxCell id="22" value="Git commit" style="rounded=0;whiteSpace=wrap;html=1;" parent="9" vertex="1">
                    <mxGeometry x="280" y="170" width="120" height="60" as="geometry"/>
                </mxCell>
                <mxCell id="25" value="Git push" style="rounded=0;whiteSpace=wrap;html=1;" parent="9" vertex="1">
                    <mxGeometry x="280" y="270" width="120" height="60" as="geometry"/>
                </mxCell>
                <mxCell id="6" value="Non-host server" style="swimlane;startSize=20;horizontal=0;html=1;whiteSpace=wrap;dashed=1;" parent="1" vertex="1">
                    <mxGeometry x="82" y="480" width="678" height="120" as="geometry"/>
                </mxCell>
                <mxCell id="3" value="Non host testing server" style="rounded=0;whiteSpace=wrap;html=1;dashed=1;" parent="6" vertex="1">
                    <mxGeometry x="280" y="30" width="120" height="60" as="geometry"/>
                </mxCell>
                <mxCell id="7" value="Non-host server" style="swimlane;startSize=20;horizontal=0;html=1;whiteSpace=wrap;dashed=1;" parent="1" vertex="1">
                    <mxGeometry x="85" y="600" width="675" height="120" as="geometry"/>
                </mxCell>
                <mxCell id="4" value="Raspberry simulation testing" style="rounded=0;whiteSpace=wrap;html=1;dashed=1;" parent="7" vertex="1">
                    <mxGeometry x="280" y="30" width="120" height="60" as="geometry"/>
                </mxCell>
                <mxCell id="11" value="Raspberry Pi" style="swimlane;startSize=20;horizontal=0;html=1;whiteSpace=wrap;" parent="1" vertex="1">
                    <mxGeometry x="85" y="720" width="675" height="300" as="geometry"/>
                </mxCell>
                <mxCell id="21" style="edgeStyle=orthogonalEdgeStyle;html=1;entryX=0.661;entryY=0.539;entryDx=0;entryDy=0;entryPerimeter=0;" parent="11" source="12" target="31" edge="1">
                    <mxGeometry relative="1" as="geometry">
                        <mxPoint x="340" y="120" as="targetPoint"/>
                    </mxGeometry>
                </mxCell>
                <mxCell id="12" value="Git pull" style="rounded=0;whiteSpace=wrap;html=1;" parent="11" vertex="1">
                    <mxGeometry x="275" y="40" width="120" height="60" as="geometry"/>
                </mxCell>
                <mxCell id="17" value="Upload to pico with pio" style="rounded=0;whiteSpace=wrap;html=1;" parent="11" vertex="1">
                    <mxGeometry x="115" y="230" width="120" height="60" as="geometry"/>
                </mxCell>
                <mxCell id="30" style="edgeStyle=none;html=1;" parent="11" source="29" target="17" edge="1">
                    <mxGeometry relative="1" as="geometry"/>
                </mxCell>
                <mxCell id="29" value="Unit test on pico" style="rounded=0;whiteSpace=wrap;html=1;dashed=1;" parent="11" vertex="1">
                    <mxGeometry x="115" y="140" width="120" height="60" as="geometry"/>
                </mxCell>
                <mxCell id="40" style="edgeStyle=orthogonalEdgeStyle;html=1;exitX=1.096;exitY=0.611;exitDx=0;exitDy=0;exitPerimeter=0;" parent="11" source="31" target="29" edge="1">
                    <mxGeometry relative="1" as="geometry">
                        <mxPoint x="335" y="160" as="sourcePoint"/>
                        <Array as="points">
                            <mxPoint x="329" y="160"/>
                            <mxPoint x="329" y="170"/>
                        </Array>
                    </mxGeometry>
                </mxCell>
                <mxCell id="41" style="edgeStyle=orthogonalEdgeStyle;html=1;" parent="11" source="31" target="39" edge="1">
                    <mxGeometry relative="1" as="geometry"/>
                </mxCell>
                <mxCell id="31" value="" style="html=1;points=[];perimeter=orthogonalPerimeter;fillColor=strokeColor;dashed=1;rotation=90;" parent="11" vertex="1">
                    <mxGeometry x="335" y="100" width="5" height="80" as="geometry"/>
                </mxCell>
                <mxCell id="39" value="Open remote screen" style="rounded=0;whiteSpace=wrap;html=1;dashed=1;" parent="11" vertex="1">
                    <mxGeometry x="435" y="160" width="120" height="60" as="geometry"/>
                </mxCell>
                <mxCell id="19" style="edgeStyle=none;html=1;" parent="1" source="3" target="4" edge="1">
                    <mxGeometry relative="1" as="geometry"/>
                </mxCell>
                <mxCell id="20" style="edgeStyle=none;html=1;" parent="1" source="4" target="12" edge="1">
                    <mxGeometry relative="1" as="geometry"/>
                </mxCell>
                <mxCell id="28" style="edgeStyle=none;html=1;" parent="1" source="25" target="3" edge="1">
                    <mxGeometry relative="1" as="geometry"/>
                </mxCell>
            </root>
        </mxGraphModel>
    </diagram>
</mxfile>